<?xml version="1.0" standalone="no"?>
<!DOCTYPE svg PUBLIC "-//W3C//DTD SVG 20010904//EN"
 "http://www.w3.org/TR/2001/REC-SVG-20010904/DTD/svg10.dtd">
<svg version="1.0" xmlns="http://www.w3.org/2000/svg"
 width="554.000000pt" height="529.000000pt" viewBox="0 0 554.000000 529.000000"
 preserveAspectRatio="xMidYMid meet">

<g transform="translate(0.000000,529.000000) scale(0.100000,-0.100000)"
fill="red" stroke="none">
<path d="M423 5256 c-103 -34 -198 -115 -286 -246 -59 -86 -137 -257 -137
-298 0 -92 163 -269 934 -1017 581 -563 736 -733 736 -802 0 -149 -695 -1090
-1494 -2022 -57 -68 -112 -138 -120 -156 -20 -41 -21 -115 -1 -160 36 -87 170
-192 349 -275 194 -90 627 -240 692 -240 72 0 139 59 245 216 71 105 149 256
545 1054 198 399 386 766 416 815 60 96 120 165 144 165 33 0 197 -254 384
-595 178 -324 436 -832 663 -1307 55 -115 88 -171 123 -209 129 -138 293 -188
584 -176 179 7 425 41 485 67 100 43 141 133 111 249 -33 131 -111 256 -401
650 -103 140 -237 329 -298 420 -146 220 -285 414 -551 771 -334 448 -476 666
-476 730 0 33 25 73 104 168 174 210 482 519 1268 1276 305 293 344 335 352
380 20 108 -95 286 -269 414 -165 121 -341 165 -443 110 -88 -48 -276 -212
-508 -443 -275 -274 -366 -374 -849 -935 -130 -150 -265 -290 -281 -290 -8 0
-53 37 -102 83 -48 45 -146 136 -217 202 -601 557 -862 805 -1224 1163 -148
146 -198 189 -248 214 -73 36 -165 46 -230 24z"/>
</g>
</svg>
