<?xml version="1.0" standalone="no"?>
<!DOCTYPE svg PUBLIC "-//W3C//DTD SVG 20010904//EN"
 "http://www.w3.org/TR/2001/REC-SVG-20010904/DTD/svg10.dtd">
<svg version="1.0" xmlns="http://www.w3.org/2000/svg"
 width="418.000000pt" height="531.000000pt" viewBox="0 0 418.000000 531.000000"
 preserveAspectRatio="xMidYMid meet">

<g transform="translate(0.000000,531.000000) scale(0.100000,-0.100000)"
fill="green" stroke="none">
<path d="M3852 5294 c-286 -77 -595 -333 -898 -744 -246 -332 -448 -673 -709
-1191 -150 -297 -235 -481 -505 -1084 -10 -22 -64 -148 -120 -280 -56 -132
-110 -258 -120 -280 -22 -50 -51 -118 -139 -325 -39 -91 -75 -166 -80 -168
-20 -7 -127 179 -269 469 -83 167 -177 345 -211 395 -182 275 -368 312 -573
113 -127 -124 -166 -272 -138 -524 53 -462 426 -1152 771 -1429 154 -122 272
-166 453 -166 358 0 614 257 871 875 77 186 127 323 312 865 285 837 406 1144
623 1585 155 315 271 518 453 790 113 171 148 218 442 605 136 179 159 220
163 300 5 78 -10 115 -61 154 -71 55 -162 68 -265 40z"/>
</g>
</svg>
