<?xml version="1.0" encoding="UTF-8"?>
<svg width="20px" height="20px" viewBox="0 0 20 20" version="1.1" xmlns="http://www.w3.org/2000/svg" xmlns:xlink="http://www.w3.org/1999/xlink">
    <!-- Generator: sketchtool 46.2 (44496) - http://www.bohemiancoding.com/sketch -->
    <title>A7BE950A-BA95-4F45-8302-2EDFC8B202A2</title>
    <desc>Created with sketchtool.</desc>
    <defs></defs>
    <g id="Symbols" stroke="none" stroke-width="1" fill="none" fill-rule="evenodd">
        <g id="ic-/-ic-rotate">
            <g>
                <rect id="Rectangle-6" fill-opacity="0.2" fill="#FF0000" opacity="0" x="0" y="0" width="20" height="20"></rect>
                <path d="M15.6708304,4.3429657 C14.1683967,2.83191681 12.1731012,2 10.0498206,2 C7.59028106,2 5.3000634,3.13988601 3.807169,5.04529547 L3.807169,3.99980002 C3.807169,3.7790221 3.62910279,3.59984002 3.40969977,3.59984002 C3.19029676,3.59984002 3.01223055,3.7790221 3.01223055,3.99980002 L3.01223055,6.37716228 C3.01223055,6.56034397 3.13465107,6.72032797 3.31192235,6.76512349 C3.38903138,6.78592141 3.4661404,6.78032197 3.53688993,6.75712429 L4.61323658,6.38836116 L5.80564425,5.97880212 C6.01312318,5.90760924 6.12361963,5.68043196 6.05287011,5.47165283 C5.98212058,5.26287371 5.75635807,5.15168483 5.54967407,5.22287771 L4.36442085,5.62843716 C5.70707188,3.86221378 7.79934987,2.80151985 10.0498206,2.80151985 C13.9951001,2.80151985 17.2042666,6.03079692 17.2042666,10.0007999 C17.2042666,13.9708029 13.9951001,17.20008 10.0498206,17.20008 C7.41300979,17.20008 4.99878173,15.7490251 3.74754861,13.4108589 C3.64341168,13.2164784 3.40175039,13.1436856 3.20858035,13.2492751 C3.01620524,13.3540646 2.94307091,13.5956404 3.04800278,13.7908209 C4.43835012,16.3873613 7.12206231,18 10.0506155,18 C12.1738961,18 14.1691916,17.1680832 15.6716253,15.6578342 C17.173264,14.1459854 18,12.1373863 18,10.0007999 C18,7.86421358 17.173264,5.85641436 15.6716253,4.34456554 L15.6708304,4.3429657 Z" id="Fill-1" stroke="#3CC476" stroke-width="0.4" fill="#3CC476"></path>
            </g>
        </g>
    </g>
</svg>